<svg version="1.1" id="Layer_1" xmlns="http://www.w3.org/2000/svg" xmlns:xlink="http://www.w3.org/1999/xlink" x="0px" y="0px"
	 width="100%" viewBox="0 0 1920 902" enable-background="new 0 0 1920 902" xml:space="preserve">
<path fill="#696767" opacity="1.000000" stroke="none" 
	d="
M1129.000000,903.000000 
	C752.666809,903.000000 376.833588,903.000000 1.000303,903.000000 
	C1.000202,602.333557 1.000202,301.667145 1.000101,1.000545 
	C640.999512,1.000363 1280.999023,1.000363 1920.998901,1.000181 
	C1920.999268,301.666107 1920.999268,602.332214 1920.999634,902.999146 
	C1657.166626,903.000000 1393.333374,903.000000 1129.000000,903.000000 
M964.498413,708.019165 
	C981.506653,706.047852 998.792664,705.399475 1015.479309,701.896362 
	C1151.347534,673.372375 1239.856323,536.567566 1210.699585,400.902191 
	C1180.309326,259.497223 1042.537842,172.170807 901.605225,204.982727 
	C766.494873,236.439087 680.497070,375.055389 712.390747,509.969604 
	C740.223511,627.705444 842.120728,708.073303 964.498413,708.019165 
z"/>
<path fill="#F8F7F7" opacity="1.000000" stroke="none" 
	d="
M963.998718,708.020752 
	C842.120728,708.073303 740.223511,627.705444 712.390747,509.969604 
	C680.497070,375.055389 766.494873,236.439087 901.605225,204.982727 
	C1042.537842,172.170807 1180.309326,259.497223 1210.699585,400.902191 
	C1239.856323,536.567566 1151.347534,673.372375 1015.479309,701.896362 
	C998.792664,705.399475 981.506653,706.047852 963.998718,708.020752 
M957.875366,203.222046 
	C932.165283,203.159286 907.198120,207.645462 882.816589,215.598267 
	C867.310303,220.656097 852.440735,227.160583 838.091370,235.394150 
	C841.524475,241.447174 844.771057,247.171295 848.172241,253.168076 
	C846.379211,254.029816 845.116577,254.636627 843.707703,255.313736 
	C840.244568,249.383347 836.980591,243.794037 833.557983,237.933090 
	C796.753967,260.038025 767.521057,289.265259 745.595520,326.176392 
	C748.967346,328.129822 751.706787,329.702850 754.432251,331.299866 
	C757.272705,332.964294 760.099670,334.651764 763.109558,336.433990 
	C762.060913,337.998322 761.254150,339.201935 760.366577,340.526031 
	C757.396179,338.840088 754.646240,337.291290 751.908142,335.721802 
	C749.061768,334.090271 746.226807,332.438782 743.048767,330.600403 
	C722.169739,368.206238 711.654663,408.014923 711.007080,451.109741 
	C718.002197,451.109741 724.421631,451.109741 731.141663,451.109741 
	C730.939270,453.053619 730.794434,454.444336 730.615356,456.164001 
	C723.974304,456.164001 717.694763,456.164001 710.978760,456.164001 
	C711.922424,499.057129 722.489136,538.839905 743.478333,576.119446 
	C749.368896,572.748169 754.818176,569.629395 760.472900,566.393066 
	C761.382202,567.937012 762.107605,569.168762 762.987488,570.662659 
	C757.329407,573.981934 751.896912,577.168884 746.053345,580.596985 
	C768.042603,617.270569 797.200562,646.354309 833.981506,668.296814 
	C837.453369,662.396729 840.617676,657.019287 843.950684,651.355042 
	C845.605103,652.516235 846.752625,653.321594 847.985474,654.186951 
	C844.776367,659.837097 841.756348,665.154236 838.497253,670.892334 
	C875.868713,691.676819 915.502075,702.227905 958.395264,702.983337 
	C958.395264,696.333984 958.395264,690.236694 958.395264,683.817505 
	C960.263855,683.817505 961.644897,683.817505 963.690796,683.817505 
	C963.690796,690.235962 963.690796,696.456787 963.690796,703.016418 
	C1006.694336,702.139587 1046.315063,691.655273 1083.505737,670.869507 
	C1080.112549,664.902466 1077.088989,659.585510 1073.911865,653.998474 
	C1075.442871,653.126587 1076.670410,652.427551 1078.220581,651.544739 
	C1081.531128,657.220215 1084.683594,662.624512 1088.004639,668.317993 
	C1124.839111,646.283997 1153.942871,617.263000 1175.944946,580.620728 
	C1170.070557,577.150085 1164.553833,573.890625 1158.868042,570.531372 
	C1159.975586,568.941528 1160.795044,567.765259 1161.679688,566.495361 
	C1167.418579,569.763000 1172.891479,572.879272 1178.563232,576.108765 
	C1199.493408,538.688660 1210.187500,498.918884 1210.974487,455.956421 
	C1204.018433,455.956421 1197.737061,455.956421 1191.230225,455.956421 
	C1191.230225,454.195343 1191.230225,452.808075 1191.230225,450.897430 
	C1197.867188,450.897430 1204.281494,450.897430 1210.639282,450.897430 
	C1213.184326,418.681610 1194.604004,349.781342 1178.419678,330.956390 
	C1172.851440,334.122864 1167.259155,337.302979 1161.472534,340.593628 
	C1160.556519,339.005005 1159.847412,337.775238 1159.029175,336.356262 
	C1164.962280,332.839844 1170.604004,329.496124 1176.376831,326.074738 
	C1154.237671,289.097382 1125.160522,259.954407 1088.453369,237.952103 
	C1084.998047,243.835968 1081.662720,249.515564 1078.094604,255.591705 
	C1076.493530,254.520035 1075.233398,253.676575 1073.987305,252.842545 
	C1077.458740,246.733994 1080.638550,241.138474 1083.835327,235.513107 
	C1082.787842,234.831619 1082.118408,234.331802 1081.393188,233.933701 
	C1053.942871,218.866455 1024.688232,209.165436 993.642700,205.241364 
	C983.632812,203.976135 973.449646,204.081772 962.434387,203.249130 
	C961.174133,203.356033 959.913818,203.462936 957.875366,203.222046 
z"/>
<path fill="#696767" opacity="1.000000" stroke="none" 
	d="
M963.345764,203.560287 
	C973.449646,204.081772 983.632812,203.976135 993.642700,205.241364 
	C1024.688232,209.165436 1053.942871,218.866455 1081.393188,233.933701 
	C1082.118408,234.331802 1082.787842,234.831619 1083.835327,235.513107 
	C1080.638550,241.138474 1077.458740,246.733994 1073.987305,252.842545 
	C1075.233398,253.676575 1076.493530,254.520035 1078.094604,255.591705 
	C1081.662720,249.515564 1084.998047,243.835968 1088.453369,237.952103 
	C1125.160522,259.954407 1154.237671,289.097382 1176.376831,326.074738 
	C1170.604004,329.496124 1164.962280,332.839844 1159.029175,336.356262 
	C1159.847412,337.775238 1160.556519,339.005005 1161.472534,340.593628 
	C1167.259155,337.302979 1172.851440,334.122864 1178.419678,330.956390 
	C1194.604004,349.781342 1213.184326,418.681610 1210.639282,450.897430 
	C1204.281494,450.897430 1197.867188,450.897430 1191.230225,450.897430 
	C1191.230225,452.808075 1191.230225,454.195343 1191.230225,455.956421 
	C1197.737061,455.956421 1204.018433,455.956421 1210.974487,455.956421 
	C1210.187500,498.918884 1199.493408,538.688660 1178.563232,576.108765 
	C1172.891479,572.879272 1167.418579,569.763000 1161.679688,566.495361 
	C1160.795044,567.765259 1159.975586,568.941528 1158.868042,570.531372 
	C1164.553833,573.890625 1170.070557,577.150085 1175.944946,580.620728 
	C1153.942871,617.263000 1124.839111,646.283997 1088.004639,668.317993 
	C1084.683594,662.624512 1081.531128,657.220215 1078.220581,651.544739 
	C1076.670410,652.427551 1075.442871,653.126587 1073.911865,653.998474 
	C1077.088989,659.585510 1080.112549,664.902466 1083.505737,670.869507 
	C1046.315063,691.655273 1006.694336,702.139587 963.690796,703.016418 
	C963.690796,696.456787 963.690796,690.235962 963.690796,683.817505 
	C961.644897,683.817505 960.263855,683.817505 958.395264,683.817505 
	C958.395264,690.236694 958.395264,696.333984 958.395264,702.983337 
	C915.502075,702.227905 875.868713,691.676819 838.497253,670.892334 
	C841.756348,665.154236 844.776367,659.837097 847.985474,654.186951 
	C846.752625,653.321594 845.605103,652.516235 843.950684,651.355042 
	C840.617676,657.019287 837.453369,662.396729 833.981506,668.296814 
	C797.200562,646.354309 768.042603,617.270569 746.053345,580.596985 
	C751.896912,577.168884 757.329407,573.981934 762.987488,570.662659 
	C762.107605,569.168762 761.382202,567.937012 760.472900,566.393066 
	C754.818176,569.629395 749.368896,572.748169 743.478333,576.119446 
	C722.489136,538.839905 711.922424,499.057129 710.978760,456.164001 
	C717.694763,456.164001 723.974304,456.164001 730.615356,456.164001 
	C730.794434,454.444336 730.939270,453.053619 731.141663,451.109741 
	C724.421631,451.109741 718.002197,451.109741 711.007080,451.109741 
	C711.654663,408.014923 722.169739,368.206238 743.048767,330.600403 
	C746.226807,332.438782 749.061768,334.090271 751.908142,335.721802 
	C754.646240,337.291290 757.396179,338.840088 760.366577,340.526031 
	C761.254150,339.201935 762.060913,337.998322 763.109558,336.433990 
	C760.099670,334.651764 757.272705,332.964294 754.432251,331.299866 
	C751.706787,329.702850 748.967346,328.129822 745.595520,326.176392 
	C767.521057,289.265259 796.753967,260.038025 833.557983,237.933090 
	C836.980591,243.794037 840.244568,249.383347 843.707703,255.313736 
	C845.116577,254.636627 846.379211,254.029816 848.172241,253.168076 
	C844.771057,247.171295 841.524475,241.447174 838.091370,235.394150 
	C852.440735,227.160583 867.310303,220.656097 882.816589,215.598267 
	C907.198120,207.645462 932.165283,203.159286 958.311768,203.404449 
	C958.748108,203.586838 958.797974,203.503769 958.673096,203.949219 
	C958.548218,210.632324 958.548218,216.869965 958.548218,223.524338 
	C960.469543,223.383301 961.845276,223.282318 963.203430,223.182617 
	C963.203430,216.334900 963.203430,209.919708 963.229126,203.543686 
	C963.254822,203.582870 963.345764,203.560287 963.345764,203.560287 
M968.274902,464.202759 
	C974.148071,459.986206 974.514954,453.990509 973.999390,446.916504 
	C992.338013,415.131958 1010.676636,383.347412 1029.247437,351.160461 
	C1024.776733,348.591980 1020.681824,346.239380 1016.628113,343.910461 
	C1015.945129,344.659180 1015.536682,344.973969 1015.298584,345.386902 
	C996.949158,377.212402 978.613098,409.045593 959.523010,441.033264 
	C954.720398,441.984070 951.700806,445.145203 948.490356,449.263336 
	C895.606934,454.847809 842.723450,460.432281 789.481140,466.054626 
	C789.893311,469.737793 790.217468,472.634857 790.582764,475.899445 
	C792.722229,475.719238 794.348022,475.610687 795.967529,475.441650 
	C819.805908,472.952911 843.645996,470.479309 867.480713,467.955261 
	C894.955994,465.045685 922.426392,462.089905 950.391113,459.729126 
	C953.522644,463.985626 957.621643,466.332916 963.151733,466.868805 
	C984.681702,533.081787 1006.211670,599.294739 1027.847168,665.832275 
	C1029.617920,665.215942 1030.930054,664.759216 1032.600220,664.177856 
	C1010.936035,597.459900 989.376160,531.063477 968.274902,464.202759 
z"/>
<path fill="#B4B3B3" opacity="1.000000" stroke="none" 
	d="
M962.890076,203.404709 
	C963.345764,203.560287 963.254822,203.582870 962.800171,203.680740 
	C961.163025,203.686996 959.980530,203.595383 958.797974,203.503769 
	C958.797974,203.503769 958.748108,203.586838 958.700806,203.578339 
	C959.913818,203.462936 961.174133,203.356033 962.890076,203.404709 
z"/>
<path fill="#36BDFC" opacity="1.000000" stroke="none" 
	d="
M960.275940,440.878174 
	C978.613098,409.045593 996.949158,377.212402 1015.298584,345.386902 
	C1015.536682,344.973969 1015.945129,344.659180 1016.628113,343.910461 
	C1020.681824,346.239380 1024.776733,348.591980 1029.247437,351.160461 
	C1010.676636,383.347412 992.338013,415.131958 973.517090,447.092346 
	C969.551392,443.601654 965.694824,440.680176 960.275940,440.878174 
z"/>
<path fill="#84F012" opacity="1.000000" stroke="none" 
	d="
M949.898926,459.154175 
	C922.426392,462.089905 894.955994,465.045685 867.480713,467.955261 
	C843.645996,470.479309 819.805908,472.952911 795.967529,475.441650 
	C794.348022,475.610687 792.722229,475.719238 790.582764,475.899445 
	C790.217468,472.634857 789.893311,469.737793 789.481140,466.054626 
	C842.723450,460.432281 895.606934,454.847809 948.887512,449.646179 
	C949.489441,453.070709 949.694214,456.112457 949.898926,459.154175 
z"/>
<path fill="#F8F7F7" opacity="1.000000" stroke="none" 
	d="
M967.816345,464.667084 
	C989.376160,531.063477 1010.936035,597.459900 1032.600220,664.177856 
	C1030.930054,664.759216 1029.617920,665.215942 1027.847168,665.832275 
	C1006.211670,599.294739 984.681702,533.081787 963.426697,466.380798 
	C965.073242,465.484192 966.444824,465.075653 967.816345,464.667084 
z"/>
<path fill="#42B883" opacity="1.000000" stroke="none" 
	d="
M968.045654,464.434937 
	C966.444824,465.075653 965.073242,465.484192 963.358276,466.009644 
	C957.621643,466.332916 953.522644,463.985626 950.145020,459.441650 
	C949.694214,456.112457 949.489441,453.070709 949.342834,449.613770 
	C951.700806,445.145203 954.720398,441.984070 959.899475,440.955719 
	C965.694824,440.680176 969.551392,443.601654 973.338074,447.431091 
	C974.514954,453.990509 974.148071,459.986206 968.045654,464.434937 
z"/>
<path fill="#F8F7F7" opacity="1.000000" stroke="none" 
	d="
M958.673096,203.949219 
	C959.980530,203.595383 961.163025,203.686996 962.774536,203.641556 
	C963.203430,209.919708 963.203430,216.334900 963.203430,223.182617 
	C961.845276,223.282318 960.469543,223.383301 958.548218,223.524338 
	C958.548218,216.869965 958.548218,210.632324 958.673096,203.949219 
z"/>
</svg>